<svg width="512" height="512" xmlns="http://www.w3.org/2000/svg">

 <g>
  <title>background</title>
  <rect fill="none" id="canvas_background" height="402" width="582" y="-1" x="-1"/>
 </g>
 <g>
  <title>Layer 1</title>
  <path fill="#757575" stroke="#757575" id="svg_1" d="m128.4,189.3l105,-100.3c5.8,-6 13.7,-9 22.4,-9c8.7,0 16.5,3 22.4,9l105.4,100.3c12.5,11.9 12.5,31.3 0,43.2c-12.5,11.9 -32.7,11.9 -45.2,0l-50.4,-48.1l0,217c0,16.9 -14.3,30.6 -32,30.6c-17.7,0 -32,-13.7 -32,-30.6l0,-217l-50.4,48.2c-12.5,11.9 -32.7,11.9 -45.2,0c-12.5,-12 -12.5,-31.3 0,-43.3z"/>
 </g>
</svg>